<?xml version="1.0" encoding="UTF-8" standalone="no" ?>
<!DOCTYPE svg PUBLIC "-//W3C//DTD SVG 1.1//EN" "http://www.w3.org/Graphics/SVG/1.1/DTD/svg11.dtd">
<svg xmlns="http://www.w3.org/2000/svg" xmlns:xlink="http://www.w3.org/1999/xlink" version="1.1" width="1080" height="1080" viewBox="0 0 1080 1080" xml:space="preserve">
<desc>Created with Fabric.js 5.2.4</desc>
<defs>
</defs>
<g transform="matrix(1 0 0 1 540 540)" id="b05bb169-e6d0-40c1-b383-7becc497771b"  >
<rect style="stroke: none; stroke-width: 1; stroke-dasharray: none; stroke-linecap: butt; stroke-dashoffset: 0; stroke-linejoin: miter; stroke-miterlimit: 4; fill: rgb(255,255,255); fill-rule: nonzero; opacity: 1; visibility: hidden;" vector-effect="non-scaling-stroke"  x="-540" y="-540" rx="0" ry="0" width="1080" height="1080" />
</g>
<g transform="matrix(1 0 0 1 540 540)" id="3ada6c86-5e3e-4c38-aa0c-d01ef0bf2788"  >
</g>
<g transform="matrix(1 0 0 1 544.5 595.37)"  >
<polygon style="stroke: rgb(224,0,27); stroke-width: 0.5; stroke-dasharray: none; stroke-linecap: butt; stroke-dashoffset: 0; stroke-linejoin: round; stroke-miterlimit: 4; fill: rgb(255,255,255); fill-rule: nonzero; opacity: 1;" vector-effect="non-scaling-stroke"  points="-19.45,13.47 -19.45,22.45 -13.46,22.45 -13.46,25.44 -10.47,28.44 -7.48,25.44 -4.48,22.45 -1.49,19.45 -1.49,16.46 1.5,13.47 7.48,13.47 7.48,7.48 10.48,7.48 10.48,4.49 16.47,4.49 16.47,7.48 19.46,7.48 19.46,1.49 19.46,-1.5 16.47,-1.5 16.47,-4.49 13.48,-7.49 13.48,-10.48 10.48,-10.48 10.48,-13.47 7.48,-16.46 7.48,-19.46 1.5,-19.46 1.5,-25.44 -1.49,-25.44 -1.49,-28.44 -9.98,-28.44 -13.46,-25.44 -13.46,-22.45 -13.46,-13.47 -13.46,-7.49 -10.47,-4.49 -10.47,4.49 -16.45,4.49 -16.45,13.47 -19.45,13.47 " />
</g>
<g transform="matrix(1 0 0 1 517.55 593.88)"  >
<polygon style="stroke: rgb(224,0,27); stroke-width: 0.5; stroke-dasharray: none; stroke-linecap: butt; stroke-dashoffset: 0; stroke-linejoin: round; stroke-miterlimit: 4; fill: rgb(255,255,255); fill-rule: nonzero; opacity: 1;" vector-effect="non-scaling-stroke"  points="7.48,14.97 4.49,14.97 4.49,11.97 1.5,8.97 -1.49,8.97 -4.49,8.97 -7.48,8.97 -7.48,11.97 -10.47,11.97 -10.47,8.97 -10.47,0 -13.47,-3 -16.46,-3 -16.46,-8.99 -13.47,-11.98 -10.47,-8.99 -7.48,-8.99 -7.48,-11.98 -1.49,-11.98 1.5,-14.97 4.49,-11.98 13.47,-11.98 13.47,-6 16.46,-3 16.46,5.98 10.48,5.98 10.48,14.97 7.48,14.97 " />
</g>
<g transform="matrix(1 0 0 1 574.42 589.38)"  >
<polygon style="stroke: rgb(224,0,27); stroke-width: 0.5; stroke-dasharray: none; stroke-linecap: butt; stroke-dashoffset: 0; stroke-linejoin: round; stroke-miterlimit: 4; fill: rgb(255,255,255); fill-rule: nonzero; opacity: 1;" vector-effect="non-scaling-stroke"  points="-10.48,13.47 -7.48,16.46 -7.48,19.46 -4.49,22.45 -4.49,28.42 -1.5,28.44 -1.5,25.44 1.5,25.44 4.49,28.44 7.48,31.43 10.48,31.43 13.47,28.44 13.47,19.46 16.46,16.46 19.46,13.47 22.45,13.47 22.45,7.48 25.44,7.48 28.43,4.49 28.43,-10.47 31.43,-10.47 31.43,-16.46 28.43,-19.45 16.46,-19.45 13.47,-22.45 13.47,-25.44 7.48,-25.44 4.49,-25.44 1.5,-28.43 -1.5,-31.43 -4.49,-31.43 -4.49,-28.43 -1.5,-28.43 -1.5,-25.44 -7.48,-25.44 -7.48,-22.45 -10.48,-19.45 -16.46,-19.45 -16.46,-22.45 -28.43,-22.45 -31.43,-22.45 -31.43,-19.45 -28.43,-19.45 -28.43,-13.47 -22.45,-13.47 -22.45,-10.47 -19.45,-7.48 -19.45,-4.49 -16.46,-4.49 -16.46,-1.5 -13.47,1.5 -13.47,4.49 -10.48,4.49 -10.48,13.47 " />
</g>
<g transform="matrix(1 0 0 1 601.36 548.98)"  >
<polygon style="stroke: rgb(224,0,27); stroke-width: 0.5; stroke-dasharray: none; stroke-linecap: butt; stroke-dashoffset: 0; stroke-linejoin: round; stroke-miterlimit: 4; fill: rgb(255,255,255); fill-rule: nonzero; opacity: 1;" vector-effect="non-scaling-stroke"  points="-16.46,14.97 -16.46,11.98 -16.46,5.99 -16.46,0 -13.47,-2.99 -13.47,-5.98 -7.48,-5.98 -7.48,-17.95 -7.48,-20.95 -2.23,-19.35 1.5,-17.95 4.49,-17.95 7.48,-14.96 7.96,-7.98 16.46,-8.98 16.46,0 10.48,5.99 7.48,5.99 7.48,8.98 4.49,11.98 1.5,14.97 1.5,20.95 -10.48,20.95 -13.47,17.96 -13.47,14.97 -16.46,14.97 " />
</g>
<g transform="matrix(1 0 0 1 575.92 545.99)"  >
<polygon style="stroke: rgb(224,0,27); stroke-width: 0.5; stroke-dasharray: none; stroke-linecap: butt; stroke-dashoffset: 0; stroke-linejoin: round; stroke-miterlimit: 4; fill: rgb(255,255,255); fill-rule: nonzero; opacity: 1;" vector-effect="non-scaling-stroke"  points="17.96,-17.96 15.12,-16.29 11.97,-14.96 8.98,-14.96 8.98,-11.97 5.98,-8.98 -8.98,-8.98 -11.98,-11.97 -14.59,-11.28 -12.93,-5.99 -14.97,-2.99 -17.96,-2.99 -17.96,0 -8.98,0 -8.98,5.99 -5.99,8.98 -5.99,11.97 -3,11.97 2.99,17.96 8.98,17.96 8.98,2.99 11.97,0 11.97,-2.99 17.96,-2.99 17.96,-17.96 " />
</g>
<g transform="matrix(1 0 0 1 559.45 554.97)"  >
<polygon style="stroke: rgb(224,0,27); stroke-width: 0.5; stroke-dasharray: none; stroke-linecap: butt; stroke-dashoffset: 0; stroke-linejoin: round; stroke-miterlimit: 4; fill: rgb(255,255,255); fill-rule: nonzero; opacity: 1;" vector-effect="non-scaling-stroke"  points="-1.49,-11.98 -4.48,-14.97 -10.47,-14.97 -10.47,-8.98 -7.48,-6 -7.48,-0.01 -10.47,-0.01 -10.47,2.98 -10.47,5.98 -13.46,8.97 -13.46,11.96 -1.49,11.96 -1.49,14.96 4.49,14.96 7.49,11.96 7.49,8.97 13.47,8.97 13.47,5.98 10.48,5.98 10.48,-0.01 7.49,-3 7.49,-8.98 -1.49,-8.98 -1.49,-11.98 " />
</g>
<g transform="matrix(1 0 0 1 544.49 550.08)"  >
<polygon style="stroke: rgb(224,0,27); stroke-width: 0.5; stroke-dasharray: none; stroke-linecap: butt; stroke-dashoffset: 0; stroke-linejoin: round; stroke-miterlimit: 4; fill: rgb(255,255,255); fill-rule: nonzero; opacity: 1;" vector-effect="non-scaling-stroke"  points="10.48,-10.07 10.48,-16.06 7.98,-16.85 5.31,-15.58 3.81,-14.21 1.74,-14.08 -0.39,-14.93 -7.48,-16.06 -10.48,-16.06 -10.48,-13.07 -10.48,-10.07 -7.48,-7.08 -7.48,-1.1 -4.49,-1.1 -4.49,1.9 -7.48,4.89 -7.48,7.88 -4.49,10.88 -4.49,13.87 -1.5,16.86 1.5,16.86 1.5,13.87 4.49,10.88 4.49,4.89 7.48,4.89 7.48,-1.1 4.49,-4.09 4.49,-10.07 10.48,-10.07 " />
</g>
<g transform="matrix(1 0 0 1 534.01 553.34)"  >
<polygon style="stroke: rgb(224,0,27); stroke-width: 0.5; stroke-dasharray: none; stroke-linecap: butt; stroke-dashoffset: 0; stroke-linejoin: round; stroke-miterlimit: 4; fill: rgb(255,255,255); fill-rule: nonzero; opacity: 1;" vector-effect="non-scaling-stroke"  points="-2.99,19.59 -5.98,16.6 -5.98,7.62 -8.98,4.62 -8.98,-4.36 -5.98,-7.35 -2.99,-7.35 -2.99,-10.34 -2.66,-18.11 0,-19.59 0,-13.33 3,-10.34 3,-4.36 5.99,-4.36 5.99,-1.36 3,1.63 3,4.62 5.99,7.62 5.99,10.61 8.98,13.6 0.49,13.6 -2.99,16.6 -2.99,19.59 " />
</g>
<g transform="matrix(1 0 0 1 514.56 572.92)"  >
<polygon style="stroke: rgb(224,0,27); stroke-width: 0.5; stroke-dasharray: none; stroke-linecap: butt; stroke-dashoffset: 0; stroke-linejoin: round; stroke-miterlimit: 4; fill: rgb(255,255,255); fill-rule: nonzero; opacity: 1;" vector-effect="non-scaling-stroke"  points="-10.48,8.98 -13.47,8.98 -13.47,-2.99 -16.46,-5.99 -16.46,-8.98 -13.47,-8.98 -10.48,-8.98 -7.48,-11.97 1.5,-11.97 1.5,-5.99 4.49,-5.99 7.48,-5.99 10.47,-2.99 13.47,-2.99 16.46,0 16.46,8.98 7.48,8.98 4.49,5.99 1.5,8.98 -4.49,8.98 -4.49,11.97 -7.48,11.97 -10.48,8.98 " />
</g>
<g transform="matrix(1 0 0 1 514.62 555.59)"  >
<path style="stroke: rgb(224,0,27); stroke-width: 0.5; stroke-dasharray: none; stroke-linecap: butt; stroke-dashoffset: 0; stroke-linejoin: round; stroke-miterlimit: 4; fill: rgb(255,255,255); fill-rule: nonzero; opacity: 1;" vector-effect="non-scaling-stroke"  transform=" translate(-82.62, -99.65)" d="M 99 85.29 L 95.76 88.06 L 90.03 88.24000000000001 L 86.14 89.61000000000001 L 85 92.33 L 84.71 93.5 C 84.32492564723259 94.98212607995018 82.98128149676864 96.01252803582744 81.45 96 L 78.07 96 L 73.88 93 L 73.22999999999999 91.35 L 72.11999999999999 86.91 L 72.11999999999999 96 L 66.11999999999999 96 L 66.11999999999999 99 L 69.11999999999999 102 L 69.11999999999999 105 L 66.11999999999999 105 L 66.11999999999999 108 L 72.11999999999999 108 L 75.11999999999999 105 L 84.11999999999999 105 L 84.11999999999999 111 L 90.11999999999999 111 L 93.11999999999999 114 L 96.11999999999999 114 L 96.11999999999999 105 L 93.11999999999999 102 L 93.11999999999999 93 L 96.11999999999999 90 L 99.11999999999999 90 Z" stroke-linecap="round" />
</g>
<g transform="matrix(1 0 0 1 484.63 562.04)"  >
<path style="stroke: rgb(224,0,27); stroke-width: 0.5; stroke-dasharray: none; stroke-linecap: butt; stroke-dashoffset: 0; stroke-linejoin: round; stroke-miterlimit: 4; fill: rgb(255,255,255); fill-rule: nonzero; opacity: 1;" vector-effect="non-scaling-stroke"  transform=" translate(-52.63, -106.1)" d="M 72.08 93 L 72.08 86.91 L 69.08 86.2 L 67.61 87.02 L 67.36 87.5 C 66.53 89.13 66.89 90.87 66.09 93 L 64.42 93.83 C 64.02205982686816 94.03191660199538 63.55758578950187 94.05731752591385 63.14 93.89999999999999 L 60.9 93.07 L 58.6 88.75 L 58.1 88.21 C 56.842448394394225 87.64648293615458 55.397265065783806 87.68325604884187 54.17 88.30999999999999 L 53.17 89.60999999999999 L 51.17 93.02999999999999 L 48.9 94.33999999999999 L 48.14 96 L 45.14 99 L 36.14 99 L 33.14 102 L 33.14 105 L 36.14 105 L 36.14 108 L 33.14 108 L 33.14 117 L 39.14 117 L 42.14 120 L 45.14 120 L 45.14 123 L 48.14 126 L 50.31 126 L 51.14 125.19 L 51.7 123 L 51.830000000000005 120.46 L 52.13 117.22 L 52.42 115.47 C 52.547318703261844 114.76094671164392 52.361310515381184 114.0315028376021 51.910000000000004 113.47 L 51.13 112.47 L 51.13 111 L 57.13 111 L 57.13 114 L 60.13 114 L 66.13 108 L 66.13 105 L 69.13 105 L 69.13 102 L 66.13 99 L 66.13 96 L 72.13 96 Z" stroke-linecap="round" />
</g>
<g transform="matrix(1 0 0 1 474.17 553.44)"  >
<path style="stroke: rgb(224,0,27); stroke-width: 0.5; stroke-dasharray: none; stroke-linecap: butt; stroke-dashoffset: 0; stroke-linejoin: round; stroke-miterlimit: 4; fill: rgb(255,255,255); fill-rule: nonzero; opacity: 1;" vector-effect="non-scaling-stroke"  transform=" translate(-42.17, -97.5)" d="M 33.17 114 L 27.17 114 L 27.17 111 L 18.17 111 L 18.17 108 L 15.170000000000002 108 L 15.170000000000002 102 L 18.17 99 L 21.17 96 L 24.17 96 L 24.17 84 L 27.17 81 L 30.17 81 L 33.17 84 L 36.17 84 L 39.17 81 L 42.17 81 L 45.17 84 L 54.17 84 L 54.17 81 L 60.17 81 L 60.17 84 L 66.17 84 L 66.17 81 L 69.17 81 L 69.17 86.17 L 67.39 87.55 L 66.76 90.28 L 66.27000000000001 92.55 C 66.210485812775 92.81791644795688 66.03446760733782 93.04527329664658 65.79 93.17 L 64.7 93.71000000000001 C 64.18089385644575 93.97202405951197 63.576664796241346 94.00820544036253 63.03 93.81 L 61.93 93.42 C 61.060873660974174 93.14842736009071 60.35509657152341 92.50847404064054 60 91.67 L 59.66 90.79 L 58.22 88.4 L 56.06 87.61 L 54.17 88.31 L 51.17 93.03 L 48.5 94.49 L 48.14 96 L 45.14 99 L 36.14 99 L 33.14 102 L 33.14 105 L 36.14 105 L 36.14 108 L 33.14 108 Z" stroke-linecap="round" />
</g>
<g transform="matrix(1 0 0 1 448.71 522.04)"  >
<polygon style="stroke: rgb(224,0,27); stroke-width: 0.5; stroke-dasharray: none; stroke-linecap: butt; stroke-dashoffset: 0; stroke-linejoin: round; stroke-miterlimit: 4; fill: rgb(255,255,255); fill-rule: nonzero; opacity: 1;" vector-effect="non-scaling-stroke"  points="-1.5,35.92 -4.49,32.92 -10.47,32.92 -13.47,29.94 -16.46,29.94 -16.46,23.95 -13.47,20.95 -10.47,17.95 -10.47,14.97 -10.47,3 -13.47,3 -13.47,-2.99 -10.47,-5.98 -10.47,-14.96 -13.47,-17.95 -13.47,-32.92 -13.47,-35.91 -10.47,-35.91 -7.48,-32.92 -4.49,-29.94 -1.5,-29.94 -1.5,-32.92 4.49,-32.92 7.48,-32.92 10.48,-29.94 10.48,-23.95 13.47,-23.95 13.47,-11.98 16.46,-11.98 16.46,-5.98 13.47,-2.99 10.48,-2.99 7.48,0 7.48,3 16.46,3 16.46,8.98 10.48,14.97 7.48,17.95 7.48,29.94 4.49,29.94 -1.5,35.92 " />
</g>
<g transform="matrix(1 0 0 1 477.14 526.53)"  >
<polygon style="stroke: rgb(224,0,27); stroke-width: 0.5; stroke-dasharray: none; stroke-linecap: butt; stroke-dashoffset: 0; stroke-linejoin: round; stroke-miterlimit: 4; fill: rgb(255,255,255); fill-rule: nonzero; opacity: 1;" vector-effect="non-scaling-stroke"  points="20.95,10.47 20.95,7.48 20.95,-4.49 17.96,-4.49 17.96,-1.5 11.98,-1.5 11.98,-4.49 5.99,-4.49 5.99,-10.48 3,-10.48 0.01,-13.47 -5.98,-13.47 -8.97,-10.48 -11.97,-10.48 -14.96,-7.49 -17.95,-7.49 -20.95,-4.49 -20.95,-1.5 -11.97,-1.5 -11.97,4.49 -17.95,10.47 -14.96,10.47 -11.97,13.47 -8.97,13.47 -5.98,10.47 -2.99,10.47 0.01,13.47 8.99,13.47 8.99,10.47 14.97,10.47 14.97,13.47 20.95,13.47 20.95,10.47 " />
</g>
<g transform="matrix(1 0 0 1 475.65 498.1)"  >
<polygon style="stroke: rgb(224,0,27); stroke-width: 0.5; stroke-dasharray: none; stroke-linecap: butt; stroke-dashoffset: 0; stroke-linejoin: round; stroke-miterlimit: 4; fill: rgb(255,255,255); fill-rule: nonzero; opacity: 1;" vector-effect="non-scaling-stroke"  points="-16.46,-5.99 -13.47,-8.98 -7.48,-8.98 -4.49,-11.97 -1.5,-11.97 -1.5,-14.96 1.5,-14.96 4.49,-17.96 7.48,-17.96 7.48,-14.96 13.47,-8.98 13.47,-5.99 16.46,-5.99 16.46,0 13.47,0 13.47,2.99 7.48,2.99 4.49,5.99 1.5,8.98 1.5,14.97 -4.49,14.97 -7.48,17.96 -10.48,17.96 -10.48,11.97 -13.47,11.97 -13.47,0 -16.46,0 -16.46,-5.99 " />
</g>
<g transform="matrix(1 0 0 1 495.11 511.56)"  >
<polygon style="stroke: rgb(224,0,27); stroke-width: 0.5; stroke-dasharray: none; stroke-linecap: butt; stroke-dashoffset: 0; stroke-linejoin: round; stroke-miterlimit: 4; fill: rgb(255,255,255); fill-rule: nonzero; opacity: 1;" vector-effect="non-scaling-stroke"  points="-3,-13.47 -0.01,-13.47 2.99,-10.48 2.99,-4.49 5.98,-4.49 8.97,-1.5 11.97,1.5 14.96,4.49 17.95,7.48 17.95,13.47 2.99,13.47 2.99,10.48 -0.01,10.48 -0.01,13.47 -5.99,13.47 -5.99,10.48 -11.98,10.48 -11.98,4.49 -14.97,4.49 -17.96,1.5 -17.96,-4.49 -11.98,-10.48 -5.99,-10.48 -5.99,-13.47 -3,-13.47 " />
</g>
<g transform="matrix(1 0 0 1 507.95 538.49)"  >
<path style="stroke: rgb(224,0,27); stroke-width: 0.5; stroke-dasharray: none; stroke-linecap: butt; stroke-dashoffset: 0; stroke-linejoin: round; stroke-miterlimit: 4; fill: rgb(255,255,255); fill-rule: nonzero; opacity: 1;" vector-effect="non-scaling-stroke"  transform=" translate(-75.95, -82.55)" d="M 66.1 69.09 L 72.1 69.09 L 72.1 72.09 L 75.1 75.09 L 75.1 78.09 L 78.1 81.09 L 78.1 84.09 L 81.1 84.09 L 84.1 87.09 L 84.1 90.09 L 85.8 90.09 L 85 92.33 L 84.49 94.39 C 84.23730812041192 95.35009835544328 83.3626919037802 96.0143116143004 82.37 96 L 78.07000000000001 96 L 73.88000000000001 93 L 73.23 91.35 L 72.12 86.91 L 69.12 86.2 L 69.12 81.06 L 66.12 81.06 Z" stroke-linecap="round" />
</g>
<g transform="matrix(1 0 0 1 514.56 535.51)"  >
<polygon style="stroke: rgb(224,0,27); stroke-width: 0.5; stroke-dasharray: none; stroke-linecap: butt; stroke-dashoffset: 0; stroke-linejoin: round; stroke-miterlimit: 4; fill: rgb(255,255,255); fill-rule: nonzero; opacity: 1;" vector-effect="non-scaling-stroke"  points="-4.49,-10.47 -1.5,-7.48 -1.5,-4.48 1.5,-4.48 1.5,1.5 7.48,1.5 10.47,4.5 10.47,7.48 8.09,8.59 3.71,10.48 1.5,10.48 1.5,7.48 -1.5,4.5 -4.49,4.5 -4.49,1.5 -7.48,-1.5 -7.48,-4.48 -10.48,-7.48 -10.48,-10.47 -4.49,-10.47 " />
</g>
<g transform="matrix(1 0 0 1 522.05 533.02)"  >
<polygon style="stroke: rgb(224,0,27); stroke-width: 0.5; stroke-dasharray: none; stroke-linecap: butt; stroke-dashoffset: 0; stroke-linejoin: round; stroke-miterlimit: 4; fill: rgb(255,255,255); fill-rule: nonzero; opacity: 1;" vector-effect="non-scaling-stroke"  points="-9,-10.98 -6,-10.98 -0.02,-10.98 2.97,-7.99 2.97,-5 5.97,-5 5.97,-2 11.95,-2 11.98,0.44 8.92,2.85 8.96,6.97 8.96,8.2 5.72,10.98 2.97,10.75 2.97,6.97 -0.02,3.98 -6,3.98 -6,-2 -9,-2 -9,-5 -11.99,-7.99 -9,-7.99 -9,-10.98 " />
</g>
<g transform="matrix(1 0 0 1 540 532.02)"  >
<polygon style="stroke: rgb(224,0,27); stroke-width: 0.5; stroke-dasharray: none; stroke-linecap: butt; stroke-dashoffset: 0; stroke-linejoin: round; stroke-miterlimit: 4; fill: rgb(255,255,255); fill-rule: nonzero; opacity: 1;" vector-effect="non-scaling-stroke"  points="-5.99,-1 -5.99,-4 2.99,-4 5.99,-1 5.99,4 -0.56,1.79 -5.99,1.99 -5.99,-1 " />
</g>
<g transform="matrix(1 0 0 1 520.54 519.05)"  >
<polygon style="stroke: rgb(224,0,27); stroke-width: 0.5; stroke-dasharray: none; stroke-linecap: butt; stroke-dashoffset: 0; stroke-linejoin: round; stroke-miterlimit: 4; fill: rgb(255,255,255); fill-rule: nonzero; opacity: 1;" vector-effect="non-scaling-stroke"  points="13.47,8.97 13.47,5.98 10.47,2.99 10.47,-3 7.48,-5.99 7.48,-8.99 4.48,-11.98 -4.48,-11.98 -7.48,-8.99 -10.48,-5.99 -13.47,-5.99 -7.48,-0.01 -7.48,2.99 1.5,2.99 4.48,5.98 4.48,8.97 7.48,8.97 7.48,11.97 13.47,11.97 13.47,8.97 " />
</g>
<g transform="matrix(1 0 0 1 492.13 586.44)"  >
<path style="stroke: rgb(224,0,27); stroke-width: 0.5; stroke-dasharray: none; stroke-linecap: butt; stroke-dashoffset: 0; stroke-linejoin: round; stroke-miterlimit: 4; fill: rgb(255,255,255); fill-rule: nonzero; opacity: 1;" vector-effect="non-scaling-stroke"  transform=" translate(-60.13, -130.5)" d="M 51.13 129 L 54.13 129 L 54.13 132 L 51.13 135 L 51.13 138 L 48.13 141 L 48.13 153 L 51.13 153 L 54.13 150 L 54.13 144 L 57.13 141 L 60.13 138 L 60.13 135 L 63.13 132 L 69.13 132 L 69.13 129 L 72.13 126 L 69.13 126 L 69.13 114 L 66.13 111 L 66.13 108 L 60.129999999999995 114 L 57.129999999999995 114 L 57.129999999999995 111 L 51.129999999999995 111 L 51.129999999999995 112.57 L 52.129999999999995 113.77 C 52.451787174265526 114.17267443493199 52.59616041145216 114.68880875787424 52.529999999999994 115.2 L 51.89999999999999 120.2 L 51.989999999999995 121.2 C 52.07960373981616 122.16994750348827 51.89965874975654 123.14580302650386 51.46999999999999 124.02 L 51.169999999999995 124.64 Z" stroke-linecap="round" />
</g>
<g transform="matrix(1 0 0 1 505.58 490.62)"  >
<polygon style="stroke: rgb(224,0,27); stroke-width: 0.5; stroke-dasharray: none; stroke-linecap: butt; stroke-dashoffset: 0; stroke-linejoin: round; stroke-miterlimit: 4; fill: rgb(255,255,255); fill-rule: nonzero; opacity: 1;" vector-effect="non-scaling-stroke"  points="-22.45,-10.48 -13.47,-10.48 -13.47,-13.47 -10.48,-13.47 -4.49,-19.46 1.5,-19.46 1.5,-22.45 10.48,-22.45 10.48,-19.46 13.47,-19.46 16.46,-16.46 16.46,-13.47 19.45,-10.48 22.45,-10.48 22.45,-7.49 19.45,-4.49 19.45,4.49 16.46,4.49 16.46,10.47 13.47,13.47 13.47,16.46 10.48,16.46 4.49,22.45 1.5,22.45 -4.49,16.46 -7.48,16.46 -7.48,10.47 -10.48,7.48 -13.47,7.48 -13.47,1.49 -16.46,1.49 -16.46,-1.5 -22.45,-7.49 -22.45,-10.48 " />
</g>
<g transform="matrix(1 0 0 1 537.01 474.15)"  >
<polygon style="stroke: rgb(224,0,27); stroke-width: 0.5; stroke-dasharray: none; stroke-linecap: butt; stroke-dashoffset: 0; stroke-linejoin: round; stroke-miterlimit: 4; fill: rgb(255,255,255); fill-rule: nonzero; opacity: 1;" vector-effect="non-scaling-stroke"  points="-20.95,-5.98 -17.96,-8.97 -17.96,-14.96 -5.99,-14.96 -5.99,-17.95 2.99,-17.95 2.99,-14.96 20.95,-14.96 20.95,5.99 17.96,8.98 17.96,11.98 14.96,14.97 14.96,17.95 -11.98,17.95 -11.98,11.98 -8.98,8.98 -8.98,5.99 -11.98,5.99 -14.97,3 -14.97,0.01 -17.96,-2.99 -20.95,-2.99 -20.95,-5.98 " />
</g>
<g transform="matrix(1 0 0 1 535.51 501.08)"  >
<polygon style="stroke: rgb(224,0,27); stroke-width: 0.5; stroke-dasharray: none; stroke-linecap: butt; stroke-dashoffset: 0; stroke-linejoin: round; stroke-miterlimit: 4; fill: rgb(255,255,255); fill-rule: nonzero; opacity: 1;" vector-effect="non-scaling-stroke"  points="-10.48,5.99 -7.48,5.99 -4.49,5.99 -1.5,8.98 1.5,8.98 4.49,5.99 4.49,3 10.48,3 13.47,0 13.47,-5.98 16.46,-8.98 -10.48,-8.98 -10.48,-5.98 -13.47,-5.98 -13.47,0 -16.46,3 -16.46,5.99 -10.48,5.99 " />
</g>
<g transform="matrix(1 0 0 1 534.01 517.55)"  >
<polygon style="stroke: rgb(224,0,27); stroke-width: 0.5; stroke-dasharray: none; stroke-linecap: butt; stroke-dashoffset: 0; stroke-linejoin: round; stroke-miterlimit: 4; fill: rgb(255,255,255); fill-rule: nonzero; opacity: 1;" vector-effect="non-scaling-stroke"  points="5.99,10.47 5.99,7.48 3,4.49 5.99,1.49 8.98,1.49 8.98,-1.5 5.99,-4.49 3,-7.49 0,-7.49 -2.99,-10.48 -8.98,-10.48 -5.98,-7.49 -5.98,-4.49 -2.99,-1.5 -2.99,4.49 0,7.48 0,10.47 5.99,10.47 " />
</g>
<g transform="matrix(1 0 0 1 547.49 514.56)"  >
<polygon style="stroke: rgb(224,0,27); stroke-width: 0.5; stroke-dasharray: none; stroke-linecap: butt; stroke-dashoffset: 0; stroke-linejoin: round; stroke-miterlimit: 4; fill: rgb(255,255,255); fill-rule: nonzero; opacity: 1;" vector-effect="non-scaling-stroke"  points="-7.48,10.48 -4.5,10.48 -1.5,7.48 4.48,7.48 4.48,4.48 10.47,4.48 10.47,-1.5 7.48,-4.5 4.48,-4.5 1.5,-7.48 1.5,-10.48 -7.48,-10.48 -7.48,-7.48 -10.47,-4.5 -4.5,1.49 -4.5,4.48 -7.48,4.48 -10.47,7.48 -7.48,10.48 " />
</g>
<g transform="matrix(1 0 0 1 551.98 531.02)"  >
<polygon style="stroke: rgb(224,0,27); stroke-width: 0.5; stroke-dasharray: none; stroke-linecap: butt; stroke-dashoffset: 0; stroke-linejoin: round; stroke-miterlimit: 4; fill: rgb(255,255,255); fill-rule: nonzero; opacity: 1;" vector-effect="non-scaling-stroke"  points="9.15,4.03 11.97,2.23 11.97,0 8.97,-3 8.97,-5.98 5.98,-8.98 5.98,-11.98 0,-11.98 0,-8.98 -5.98,-8.98 -8.98,-5.98 -11.97,-5.98 -11.97,-3 -8.98,-3 -5.98,0 -5.98,5 -3.67,4.84 -2.16,3.47 0.5,2.2 3,2.99 3,8.97 5.98,11.97 8.97,11.97 11.02,8.97 9.15,4.03 " />
</g>
<g transform="matrix(1 0 0 1 572.92 523.53)"  >
<polygon style="stroke: rgb(224,0,27); stroke-width: 0.5; stroke-dasharray: none; stroke-linecap: butt; stroke-dashoffset: 0; stroke-linejoin: round; stroke-miterlimit: 4; fill: rgb(255,255,255); fill-rule: nonzero; opacity: 1;" vector-effect="non-scaling-stroke"  points="14.97,7.49 14.97,1.5 11.98,-1.49 8.98,-1.49 8.98,-4.49 5.99,-7.48 5.99,-13.47 0.01,-13.47 0.01,-10.47 -14.96,-10.47 -14.96,-1.49 -11.97,1.5 -11.97,4.49 -8.97,7.49 -8.97,10.48 -5.98,13.47 8.98,13.47 11.98,10.48 11.98,7.49 14.97,7.49 " />
</g>
<g transform="matrix(1 0 0 1 556.47 493.61)"  >
<polygon style="stroke: rgb(224,0,27); stroke-width: 0.5; stroke-dasharray: none; stroke-linecap: butt; stroke-dashoffset: 0; stroke-linejoin: round; stroke-miterlimit: 4; fill: rgb(224,0,27); fill-rule: nonzero; opacity: 1;" vector-effect="non-scaling-stroke"  points="10.47,-16.46 10.47,-10.48 10.47,-7.48 10.47,19.45 1.49,19.45 -1.5,16.45 -4.5,16.45 -7.48,13.47 -7.48,10.48 -10.48,10.48 -7.48,7.48 -7.48,1.49 -4.5,-1.51 -4.5,-4.49 -1.5,-7.48 -1.5,-10.48 1.49,-13.47 1.49,-16.46 1.49,-19.45 4.48,-19.45 4.48,-16.46 10.47,-16.46 " />
</g>
<g transform="matrix(1 0 0 1 583.4 499.59)"  >
<polygon style="stroke: rgb(224,0,27); stroke-width: 0.5; stroke-dasharray: none; stroke-linecap: butt; stroke-dashoffset: 0; stroke-linejoin: round; stroke-miterlimit: 4; fill: rgb(255,255,255); fill-rule: nonzero; opacity: 1;" vector-effect="non-scaling-stroke"  points="13.47,-16.46 16.46,-16.46 16.46,-7.48 13.47,-4.48 13.47,4.5 10.48,7.49 10.48,10.48 7.48,13.48 4.49,13.48 4.49,16.47 -4.49,16.47 -4.49,10.48 -10.48,10.48 -10.48,13.48 -16.46,13.48 -16.46,-13.46 -16.46,-16.46 -13.47,-16.46 -4.49,-7.48 1.5,-7.48 4.49,-10.47 4.49,-13.46 10.48,-13.46 10.48,-16.46 13.47,-16.46 " />
</g>
<g transform="matrix(1 0 0 1 595.38 511.56)"  >
<polygon style="stroke: rgb(224,0,27); stroke-width: 0.5; stroke-dasharray: none; stroke-linecap: butt; stroke-dashoffset: 0; stroke-linejoin: round; stroke-miterlimit: 4; fill: rgb(255,255,255); fill-rule: nonzero; opacity: 1;" vector-effect="non-scaling-stroke"  points="10.47,19.46 10.47,10.48 13.47,7.48 13.47,4.49 16.47,1.5 16.47,-4.49 7.49,-4.49 4.49,-7.48 4.49,-10.48 7.49,-13.47 7.49,-16.46 4.49,-19.46 1.5,-16.46 1.5,-7.48 -1.5,-4.49 -1.5,-1.5 -4.5,1.5 -7.49,1.5 -7.49,4.49 -16.47,4.49 -13.47,7.48 -13.47,10.48 -10.47,10.48 -7.49,13.47 -7.49,19.46 -4.34,18.13 4.13,17.55 7.49,19.46 10.47,19.46 " />
</g>
<g transform="matrix(1 0 0 1 623.81 510.56)"  >
<polygon style="stroke: rgb(224,0,27); stroke-width: 0.5; stroke-dasharray: none; stroke-linecap: butt; stroke-dashoffset: 0; stroke-linejoin: round; stroke-miterlimit: 4; fill: rgb(255,255,255); fill-rule: nonzero; opacity: 1;" vector-effect="non-scaling-stroke"  points="-5.99,29.44 -5.99,23.45 -3,23.45 -3,20.46 0,20.46 0,14.47 3,14.47 5.98,14.47 5.98,11.48 8.98,8.48 14.97,8.48 14.97,5.49 23.94,5.49 23.94,2.5 17.97,-3.49 11.97,-3.49 11.97,-6.48 8.98,-9.48 8.98,-12.47 5.98,-15.46 5.98,-18.46 3,-18.46 3,-24.44 0,-27.43 -3,-30.43 -5.99,-30.43 -8.97,-27.43 -17.96,-27.43 -23.94,-27.43 -23.94,-18.46 -20.94,-15.46 -20.94,-12.47 -23.94,-9.48 -23.94,-6.48 -20.94,-3.49 -11.97,-3.49 -11.97,2.5 -14.97,5.49 -14.97,8.48 -17.96,11.48 -17.96,20.46 -14.97,23.45 -14.49,30.43 -5.99,29.44 " />
</g>
<g transform="matrix(1 0 0 1 547.73 554.42)"  >
<path style="stroke: rgb(224,0,28); stroke-width: 0.52; stroke-dasharray: none; stroke-linecap: butt; stroke-dashoffset: 0; stroke-linejoin: round; stroke-miterlimit: 4; fill: rgb(224,0,28); fill-rule: nonzero; opacity: 1;" vector-effect="non-scaling-stroke"  transform=" translate(-115.73, -98.47)" d="M 185.8 85.92 C 185.26000000000002 85.60000000000001 185.13000000000002 85.7 184.37 86.3 C 183.19021997079824 87.020603251585 181.82071658090197 87.36907739659678 180.44 87.3 C 178.8 87.3 176.62 87.09 175.59 83.92999999999999 C 174.56 80.76999999999998 175.14000000000001 80.52999999999999 174.8 79.58 C 174.46 78.63000000000001 173.35000000000002 76.24 172.15 76.27 C 170.23952351759408 76.43363426786357 168.32249432142783 76.04119894328606 166.63 75.14 C 164.15 73.85 163.63 73.22 161.94 74.07000000000001 C 161.74 74.17 161.53 74.27000000000001 161.3 74.36000000000001 L 161.3 74.36000000000001 C 159.6741645420398 75.04120246122602 157.9409815854144 75.43049160187431 156.18 75.51000000000002 C 154.77 75.51000000000002 154.18 75.19000000000003 153.82 76.33000000000001 C 153.33881696538384 78.66983129756852 151.6465315165374 80.57555815437757 149.38 81.33000000000001 C 145.78 82.71000000000001 144.81 82.18 143.26 81.96000000000001 C 142.18505659904042 81.71917809912811 141.06871093091192 81.73287559198859 140 82 C 139 82.28 137.47 83.2 135.42 82.28 C 133.36999999999998 81.36 132.36999999999998 79.28 132.01999999999998 78.78 C 131.81772466907702 78.46984244064794 131.46061906263435 78.29684776042255 131.0918520035023 78.33037203852545 C 130.72308494437027 78.36389631662837 130.40302929020498 78.5984511114545 130.26 78.94 C 129.83491737290905 79.66828421770451 129.81601122149277 80.5644357948356 130.20999999999998 81.31 C 130.2683014156125 81.42079281245259 130.3387335908026 81.52476411868554 130.42 81.62 C 131.10585640646732 82.38620850502058 131.49589671341747 83.37194673531278 131.51999999999998 84.4 C 131.51999999999998 85.62 130.13 87.64 127.10999999999999 87.64 C 126.29546909981318 87.64561264602438 125.49550986094043 87.42397891750552 124.8 87 L 124.8 87 C 123.66365408973526 86.27998646990271 122.83375194809183 85.16513938692249 122.47 83.87 C 122.39030287672144 83.56617934495851 122.34666894289954 83.25402889530953 122.34 82.94 C 122.34 81.17999999999999 123.25 77.81 120.67 77.81 C 118.94 77.81 117.67 79.63 116.54 80.33 C 115.41000000000001 81.03 114.96000000000001 81.17999999999999 113.17 80.42999999999999 C 111.31406828261099 79.60877965076185 109.39440332256487 78.9399068423834 107.42999999999998 78.42999999999998 C 105.79070866979863 78.04973241211044 104.09442678824304 77.98188113684822 102.43000000000002 78.22999999999999 L 102.43 78.22999999999999 C 102.12112613033645 78.28278651624277 101.81686204252262 78.35968842854736 101.52000000000001 78.46 C 100.44000000000001 78.83999999999999 100.10000000000001 78.99 100.03000000000002 79.75 C 99.96000000000002 80.51 99.88000000000001 83.98 98.87000000000002 85.87 C 98.5281511517406 86.56394412576759 98.06407162955169 87.19062085281101 97.50000000000001 87.72 L 97.50000000000001 87.72 C 96.87609999811359 88.28245154040293 96.05968026911158 88.58323775635104 95.22000000000001 88.56 C 93.68 88.56 93.71000000000001 88.06 91.66000000000001 88.41 C 89.61000000000001 88.75999999999999 86.24 89.57 85.8 91 C 85.36 92.43 85.67999999999999 97.18 80.2 97.18 C 77.49586829026127 97.33233043878981 74.92505431937109 95.99320495246045 73.5 93.69000000000001 L 73.5 93.69000000000001 C 72.9479807612281 92.80927919651425 72.63757646574803 91.79874076789582 72.6 90.76 C 72.6 88.49000000000001 72.25 86.57000000000001 70.05 86.57000000000001 C 67.85 86.57000000000001 66.9 88.25 66.9 90.9 C 66.9 93.55000000000001 65.42 94.18 63.81 94.18 C 62.2 94.18 60.81 93.92 59.93 92.10000000000001 C 59.05 90.28000000000002 58.48 87.93 56.24 87.93 C 54.00000000000001 87.93 53.31 89.64 52.84 90.77000000000001 C 52.348450141553904 92.02107468569815 51.431293412697535 93.05863036737738 50.25 93.70000000000002 C 48.97 94.39000000000001 48.46 94.87000000000002 48.46 95.44000000000001 C 48.46 96.01 48.24 97.01 48.77 97.44000000000001 C 49.300000000000004 97.87000000000002 49.77 98.76 50.32 98.80000000000001 C 50.92423509867326 98.83192284295454 51.490146729941586 99.10586732688061 51.89 99.56000000000002 C 52.406825542278085 100.38098281295541 52.7473613354608 101.30042945454875 52.89 102.26000000000002 C 52.71958640658759 103.39885402075588 51.891494373779004 104.32898583011907 50.78 104.63000000000002 C 49.90378005435048 104.93157633890313 48.99346498681841 105.12304482174197 48.07 105.20000000000002 C 47.6 105.26000000000002 46.27 105.95000000000002 46.21 106.58000000000001 C 46.140649005697924 107.08099190270067 46.239104143903994 107.5908488684107 46.49 108.03000000000002 C 46.73761169180083 108.43188007371278 46.881902123498136 108.88879977408759 46.910000000000004 109.36000000000001 C 46.910000000000004 109.76000000000002 47.38 110.27000000000001 48.040000000000006 110.62000000000002 C 48.040000000000006 110.62000000000002 49.13000000000001 111.22000000000001 50.34 111.83000000000001 L 50.34 111.83000000000001 L 51.11000000000001 112.21000000000001 C 52.59 112.94000000000001 52.81000000000001 115.08000000000001 52.56000000000001 115.87 C 52.175518506318575 116.68839475180714 51.96118980476181 117.5763279439709 51.93000000000001 118.48 C 51.99000000000001 119.48 52.02000000000001 121.48 52.050000000000004 122.64 C 52.162299031690196 123.56493605350902 51.81048530050228 124.48564007342632 51.11000000000001 125.1 C 50.800000000000004 125.39 50.550000000000004 125.66 50.28000000000001 125.91 L 49.60000000000001 125.91 C 50.50000000000001 125.17999999999999 51.67000000000001 123.91 51.67000000000001 122.96 C 51.67000000000001 121.64 51.55000000000001 119.49 51.55000000000001 118.22999999999999 C 51.55000000000001 116.96999999999998 52.40000000000001 115.64999999999999 52.24000000000001 114.79999999999998 C 51.948957102805714 113.65119001407271 51.15009639727978 112.69771110747725 50.07000000000001 112.20999999999998 C 48.74000000000001 111.54999999999998 46.63000000000001 110.79999999999998 46.470000000000006 109.81999999999998 C 46.31 108.83999999999997 46.470000000000006 108.71999999999998 45.970000000000006 107.98999999999998 C 45.45824496565105 107.22874408494181 45.563429159010155 106.21056109322564 46.220000000000006 105.56999999999998 C 46.76817487241533 104.81238683447256 47.65521544398606 104.37448072951993 48.59 104.39999999999998 C 49.61655966108014 104.48891538480092 50.63863510320728 104.18515170444846 51.45 103.54999999999998 C 52.21 102.81999999999998 52.78 102.46999999999998 52.080000000000005 101.08999999999999 C 51.65569297884014 100.08629976872682 50.779701814457376 99.3439343751821 49.720000000000006 99.08999999999999 C 48.818576050601315 98.68862841988405 48.190095671113106 97.84813056297813 48.06000000000001 96.86999999999999 L 48.06000000000001 96.86999999999999 C 48.012775844998764 96.68893715255318 47.976048029016866 96.50529807264368 47.95000000000001 96.32 C 47.77000000000001 94.89999999999999 47.86000000000001 94.32 49.09000000000001 93.74 C 50.50384772207405 93.20928936117438 51.640993230417905 92.12629363894213 52.24000000000001 90.74 C 53.19000000000001 88.88 53.75000000000001 87.21 56.37000000000001 87.3 C 58.990000000000016 87.39 59.71000000000001 90.49 60.06000000000001 91.3 C 60.685405927013704 92.79932863487497 62.15550410862717 93.77149033561935 63.78000000000001 93.75999999999999 C 64.49844140858805 93.80187859961657 65.19646345217664 93.51225520782877 65.67421694470958 92.9740512733835 C 66.15197043724254 92.43584733893822 66.35677740253193 91.70840621460223 66.23 91 C 66.23 90.28 66.23 87.87 67.77000000000001 86.69 L 67.77000000000001 86.69 C 68.4389883438581 86.21419102955974 69.25050631362978 85.98132065562525 70.07000000000001 86.03 C 73.91000000000001 86.1 73.50000000000001 89.15 73.44000000000001 89.78 C 73.38000000000001 90.41 73.73 93 75 94 C 76.44658342290036 95.32466086036888 78.30252436053279 96.11502354103365 80.26 96.24 C 82.56 96.24 83.92 94.92 84.45 92.3 C 84.54 91.86 84.62 91.48 84.71000000000001 91.14 C 85.12 89.51 85.56 89.08 87.00000000000001 88.71 C 88.63000000000001 88.3 90.91000000000001 87.39 92.39000000000001 87.42999999999999 L 92.39000000000001 87.42999999999999 L 92.65000000000002 87.42999999999999 C 94.11000000000001 87.61999999999999 95.97000000000001 88.22 97.29000000000002 86.42999999999999 C 98.61000000000003 84.63999999999999 98.58000000000003 82.33 98.93000000000002 80 C 99.00350571064034 78.44782887766294 100.11131208902395 77.13897615653563 101.63000000000002 76.81 L 101.70000000000002 76.81 C 103.23446251314643 76.55928936714602 104.80540438428287 76.6514968247997 106.30000000000001 77.08 C 108.02443092184846 77.48088400858137 109.7267492226757 77.97155222470217 111.4 78.55 L 111.46000000000001 78.55 C 112.72075964759247 79.08946546154085 114.0212917148829 79.53077711419466 115.35000000000001 79.86999999999999 C 116.07000000000001 79.8 117.17 78.69999999999999 117.87 77.86999999999999 C 118.89862571404754 76.97555956666825 120.31193480521361 76.66651597873327 121.62 77.05 C 122.91947319926773 77.39773916597832 123.76958018308105 78.64314589726484 123.62 79.98 C 123.62 81.18 122.7 86.19 127.27000000000001 86.19 C 131.84000000000003 86.19 129.35000000000002 82.57 128.97 81.84 C 128.97 81.84 127.87 79.48 129.25 78.22 C 130.63 76.96 132.18 76.58 132.97 77.52 L 132.97 77.52 L 132.97 77.52 C 133.76 78.52 134.91 80.67999999999999 136.67 80.64999999999999 C 138.42999999999998 80.61999999999999 139.41 80.05 140.60999999999999 80.05 C 141.9678249434579 80.02067053715652 143.32626174160572 80.0607227277653 144.67999999999995 80.16999999999999 C 146.27999999999997 80.33 149.08999999999997 80.43 149.58999999999997 79.10000000000001 C 150.08999999999997 77.77000000000001 151.42 75.82000000000001 151.58999999999997 75.35000000000001 C 151.75999999999996 74.88000000000001 151.86999999999998 74.35000000000001 152.27999999999997 74.16000000000001 C 152.68999999999997 73.97000000000001 154.14 73.27000000000001 154.67999999999998 73.08000000000001 L 155.05999999999997 72.96000000000001 C 155.34835000021206 72.88203472692454 155.65645565673688 72.93705359416111 155.89999999999998 73.11000000000001 C 156.6511643511538 73.58458433225648 157.5740595590949 73.70177737453471 158.42 73.43 C 159.33999999999997 73.02000000000001 160.66 70.91000000000001 163.42 71.04 C 165.17413157903167 71.11448284218785 166.85746109055677 71.75274528197446 168.22 72.86 C 169.16758713962057 73.51248389980915 170.30026844823226 73.84211870788809 171.45 73.8 L 172 73.8 C 174.24 73.8 177.17 76.8 177.71 80.13 C 178.25000000000003 83.46 178.62 84.75999999999999 180.89000000000001 84.13 C 182.48838442696993 83.57877764890192 184.14110305859134 83.19995978810431 185.82 83 Z" stroke-linecap="round" />
</g>
<g transform="matrix(NaN NaN NaN NaN 0 0)"  >
<g style=""   >
</g>
</g>
<g transform="matrix(NaN NaN NaN NaN 0 0)"  >
<g style=""   >
</g>
</g>
</svg>